<?xml version="1.0" standalone="no"?>
<!DOCTYPE svg PUBLIC "-//W3C//DTD SVG 20010904//EN"
 "http://www.w3.org/TR/2001/REC-SVG-20010904/DTD/svg10.dtd">
<svg version="1.0" xmlns="http://www.w3.org/2000/svg"
 width="256.000000pt" height="256.000000pt" viewBox="0 0 256.000000 256.000000"
 preserveAspectRatio="xMidYMid meet">

<g transform="translate(0.000000,256.000000) scale(0.100000,-0.100000)"
fill="#000000" stroke="none">
<path d="M1675 2060 c-10 -11 -60 -52 -112 -91 l-93 -70 2 -357 c3 -347 4
-357 22 -354 24 4 116 62 174 109 l42 34 0 375 c0 206 -4 374 -8 374 -5 0 -17
-9 -27 -20z"/>
<path d="M1959 1764 c-85 -91 -155 -170 -157 -175 -2 -5 14 -11 36 -15 68 -11
69 -15 27 -90 -192 -352 -614 -521 -990 -398 -129 42 -198 83 -315 183 l-65
56 40 -49 c59 -73 175 -161 278 -211 340 -165 744 -98 1009 167 59 59 143 177
167 236 16 39 22 39 69 7 20 -14 40 -25 43 -25 4 0 10 57 13 128 4 70 9 178
12 240 4 65 2 112 -3 112 -5 0 -79 -75 -164 -166z"/>
<path d="M1300 1810 c-52 -27 -101 -50 -107 -50 -10 0 -13 -72 -13 -324 0
-179 4 -327 8 -330 10 -6 149 18 197 34 l35 12 0 354 c0 277 -3 354 -12 353
-7 0 -56 -23 -108 -49z"/>
<path d="M1015 1703 c-49 -14 -100 -29 -112 -34 l-23 -9 0 -259 0 -259 33 -11
c36 -12 150 -31 185 -31 l22 0 0 315 c0 173 -3 314 -7 314 -5 -1 -48 -12 -98
-26z"/>
<path d="M775 1655 c-5 -2 -49 -7 -97 -10 l-88 -7 0 -172 0 -172 78 -51 c81
-54 146 -85 156 -75 3 3 6 115 6 249 l0 243 -22 -1 c-13 0 -27 -2 -33 -4z"/>
<path d="M1222 713 c3 -135 4 -138 26 -141 19 -3 22 1 22 35 l1 38 32 -38 c23
-26 40 -37 60 -37 15 0 27 3 27 7 0 4 -17 24 -37 45 l-37 38 34 35 34 35 -29
0 c-18 0 -40 -10 -57 -27 l-28 -27 0 87 c0 86 0 87 -25 87 l-26 0 3 -137z"/>
<path d="M552 808 c-24 -12 -36 -42 -30 -79 2 -17 17 -31 53 -49 28 -14 50
-32 50 -40 0 -21 -43 -25 -64 -6 -15 14 -20 14 -37 2 -18 -14 -18 -15 0 -35
39 -43 125 -35 147 13 20 42 4 74 -49 99 -26 12 -48 30 -50 41 -3 16 1 17 36
11 26 -4 42 -2 47 5 19 30 -61 59 -103 38z"/>
<path d="M1410 690 l0 -120 65 0 c63 0 65 1 65 25 0 23 -4 25 -40 25 l-40 0 0
95 c0 95 0 95 -25 95 l-25 0 0 -120z"/>
<path d="M717 793 c-4 -3 -7 -19 -7 -35 0 -15 -4 -28 -10 -28 -5 0 -10 -7 -10
-15 0 -8 4 -15 9 -15 4 0 11 -21 14 -47 5 -50 32 -83 68 -83 25 0 25 32 -1 48
-13 8 -20 23 -20 43 0 22 5 32 20 36 11 3 20 11 20 18 0 7 -9 15 -20 18 -15 4
-20 14 -20 36 0 23 -5 31 -18 31 -10 0 -22 -3 -25 -7z"/>
<path d="M880 733 c-48 -18 -72 -70 -54 -118 8 -20 56 -45 88 -45 76 0 108
111 44 150 -33 20 -51 23 -78 13z m60 -64 c15 -27 -5 -51 -39 -47 -26 3 -38
26 -27 54 8 22 54 17 66 -7z"/>
<path d="M1064 726 c-48 -21 -60 -84 -25 -127 28 -34 104 -34 132 0 10 13 19
27 19 32 0 13 -44 11 -57 -2 -6 -6 -21 -9 -34 -7 -19 2 -24 9 -24 33 0 24 5
31 24 33 13 2 28 -1 34 -7 11 -11 57 -15 57 -5 0 19 -24 43 -51 53 -39 13 -37
13 -75 -3z"/>
<path d="M1594 726 c-33 -15 -44 -33 -44 -71 0 -37 10 -55 41 -70 42 -22 77
-18 107 12 24 25 25 28 8 31 -10 2 -29 -1 -41 -8 -29 -15 -59 -9 -63 13 -3 15
5 17 57 17 63 0 70 6 55 45 -7 17 -55 45 -76 45 -7 -1 -27 -7 -44 -14z m66
-36 c11 -7 7 -10 -18 -10 -20 0 -31 4 -27 10 8 13 26 13 45 0z"/>
<path d="M1831 731 c-8 -5 -29 -7 -48 -4 l-34 6 3 -79 c3 -73 5 -79 25 -82 20
-3 22 1 25 55 2 47 6 58 22 61 26 5 36 -15 36 -71 0 -44 2 -48 23 -45 20 3 22
8 22 66 0 55 -4 67 -24 83 -26 21 -30 22 -50 10z"/>
<path d="M1962 724 c-35 -24 -29 -60 16 -83 38 -21 37 -23 -10 -25 -36 -1 -38
-17 -5 -36 40 -22 81 -4 85 38 3 27 -2 35 -27 50 -35 19 -41 37 -11 29 10 -3
24 1 31 9 9 11 6 16 -16 24 -34 13 -37 13 -63 -6z"/>
</g>
</svg>
